<?xml version="1.0" encoding="UTF-8"?>
<svg id="_图层_1" data-name="图层_1" xmlns="http://www.w3.org/2000/svg" version="1.1" viewBox="0 0 472.8 154">
  <!-- Generator: Adobe Illustrator 29.8.1, SVG Export Plug-In . SVG Version: 2.1.1 Build 2)  -->
  <defs>
    <style>
      .st0 {
        fill-rule: evenodd;
      }

      .st0, .st1 {
        fill: #930f15;
      }
    </style>
  </defs>
  <path class="st1" d="M194,67.3s.2,2,2,1.6c0,0,4.4-3.6,4.6-7.5,0,0,1.7-12.2,4.3-17.1,0,0,.3-3-6.5-9.4,0,0-2.4.7-2.3,1.9.2,1.2,3.3,2.6,1.5,9.7l-1.7,14.8s-.1,4.4-1.9,6"/>
  <path class="st1" d="M226.6,75.4l-6.8-7.7s-3.5-1.6-2.8,1.9c0,0-3.4,11.6-9.2,14.8,0,0-.8,3.5,3,1.1,0,0,10.2-6.5,13.3-6.1,0,0,4-1.3,2.5-4"/>
  <path class="st1" d="M202.7,73.3s1.5-2.9-1.6-2c0,0-6.5,8.2-10.8,9,0,0-7.1,7.2-9.7,8.4,0,0-5.6,3.5-6.4,4.8l-.8-.8s6.2-14.6-1-17.3c0,0-1.4.7-1.1,2.8,0,0-4.4,15.8-7.9,18,0,0,2.9,4.5,6.3,7.5,0,0,12.8-5.8,16.6-8.8,0,0,6.4-6,7.9-8.7,0,0,6.6-8.6,8.5-12.9"/>
  <path class="st1" d="M448.9,17.1l-1.7,1.8-7.2,4.3s-.5,4.9-7.1,1.9c0,0-2.3-.3-3.2,3.6l-12.4,8.6s-4,2.7-4.1-4.5c0,0-.4-5.5-3.2,1.6,0,0-1.6,8.3,0,10,0,0,6.3,3,7.8-2.7,0,0,10.9-8.1,12.7-9.5,0,0,5.1,3.9,7.6,3.2,0,0,2.2,1.4-3.4,5.5,0,0-19.7,22.1-24.3,21.7,0,0-2.8,5-1.5,8.4,0,0,5.1,2.1,6.5,1.1l7.8-6.1s.5,3.7-3.9,9.8c0,0-1.2,6.9,5.9,4.4,0,0,7.9-1.1,9.1,4.6,0,0-12.9-4.5-35.8,9.6,0,0-1.9,6.3,25.1,18.5,0,0,10.8,4.9,14.2-7.9l1.6-10.3s-1.3-1.5,1.7-1.9l6.7,2.7s1.3,4,3.8.6c0,0,7.4-1.6-.4-6.8l-12.3-3.6s3.7-7.2-10.4-10.6l6.6-16.4s-2.2-6-10.9.2c0,0,7.6-7.7,11.7-9.2,0,0,1.8.1,3.1-4.5,0,0,2.7-.2,7-7.9,0,0,4.4.8,11.4-17.1,0,0-5-4.3-8.6-2.8M433,101c-3.4,11.1-18.7,1.5-18.7,1.5-8.4-2.8,5.5-7.2,5.5-7.2l10.4-3.4c9-2.4,2.8,9.1,2.8,9.1M441.3,27.8s0-1.3,1.5-2l3.8-2s-3.3,8-5.3,4"/>
  <path class="st1" d="M278.7,85.8s-1.6-4.8,8.2-15.7l-.8-4.4,1-2.6-2.3-1.9s0-4.5-4.8-4.5c0,0-2.7-.7,2.7-3.6l11.6-6.9,5.7-13.2s1.6-2.3-3-3.9c0,0-.3,2.9-3.4,4.4-3.1,1.5-7.6,5.3-9.9,7.8,0,0,4.7-12.5,5.2-15.3l-.8-5.4s-2.9-4.2-3.3,4l-13.1,25.8-8.2,4.3s-7.9-1.7-4.4,4.2l6.7,5.4-7.8,17-2.4,4.7,5.6,4,9.1-5.3s1.2,0,.8,1.9l-2.7,7.6s-6,6.2-8.3,6c0,0-.9,0-4.1,1,0,0-9.5,4.7-.8,9.1,0,0,2.7,3,5.7-1.9l3.9-6.3,11.7,9s2.6-3.2,1.9-8.9v-16.5ZM270.4,77.5l-5.1,3.1,4.4-14.8c1.4-4.7,6.5-6.9,6.5-6.9-.1,4.4-3.1,12.2-3.1,12.2-1.3,4-2.8,6.4-2.8,6.4"/>
  <path class="st1" d="M291.6,91.7l-8.1-2.3s-6.2.2-1.3,3.2c0,0,4.1,4.2,5.5,7.7,0,0,1.2,6.3,5.6,1.4l2-3.9s1.6-3.7-3.7-6.1"/>
  <path class="st1" d="M366.5,47l5.9-3.5,4-9.2s1.1-1.6-2.1-2.7c0,0-.2,2-2.4,3.1-2.2,1-5.3,3.7-6.9,5.4h0c0,.1-4.8,2.7-4.8,2.7.7-2.1-6.6-6.8-6.6-6.8-3.3-1.7-4,.4-4,.4-.9,2.5,1.8,7.8,1.8,7.8v3.6c.1,0-6.4,4.8-6.4,4.8l-8,3.9s-7.9-1.7-4.4,4.2l4.5,3.6c.6.8,1.3,1.3,2,1.6l.2.2h0c2.7.9,5.5-.9,6.5-1.6-1.8,1.8-6.6,11.2-6.6,11.2-5.8,15.4-20.7,26.3-20.7,26.3-3.9,4.7,2.5,2.2,2.5,2.2,5.6-2.3,20.8-19.3,20.8-19.3,21.2-25.3,19.9-35.2,19.9-35.2,1.5-.7,3.2-1.7,4.7-2.8"/>
  <path class="st1" d="M369.9,76.7s-5.5-3.1-3.4,3.2c0,0,4.1,13.8.2,17.4,0,0-2.5,4.4,1.4,2.9,0,0,5.7-9.4,10.3-12.8,0,0,1.9-7.1-8.5-10.7"/>
  <path class="st0" d="M77.8,14.6c-34.5,0-62.5,28-62.5,62.5s28,62.5,62.5,62.5,62.5-28,62.5-62.5S112.3,14.6,77.8,14.6M77.8,137.3c-33.3,0-60.3-27-60.3-60.3s27-60.3,60.3-60.3,60.3,27,60.3,60.3-27,60.3-60.3,60.3"/>
  <path class="st1" d="M70.3,128.5l.2-1.3,3.5.5-.5,3.2c-.4.3-.9.5-1.6.6-.7.1-1.4.2-2,0-.8-.1-1.6-.4-2.1-.8-.6-.4-1-1-1.2-1.7-.2-.7-.3-1.4-.1-2.2.1-.8.4-1.5.9-2.1.4-.6,1-1,1.8-1.2.6-.2,1.2-.2,2-.1,1,.2,1.8.5,2.2,1,.5.5.8,1.1.8,1.9h-1.7c0-.4-.2-.7-.5-1-.3-.3-.6-.4-1.1-.5-.7,0-1.3,0-1.8.4-.5.4-.8,1-.9,1.9-.1.9,0,1.7.3,2.2.4.5.9.9,1.6,1,.3,0,.7,0,1,0,.4,0,.7-.2,1-.3l.2-1-1.9-.3Z"/>
  <polygon class="st1" points="56.9 128 59.6 120.5 61.1 121 62.5 127.1 64.3 122.1 65.7 122.6 63 130.1 61.4 129.6 60.1 123.6 58.3 128.5 56.9 128"/>
  <polygon class="st1" points="33.8 110.6 40 105.4 41.1 106.6 39.1 112.5 43.2 109 44.2 110.2 38 115.4 37 114.1 38.9 108.3 34.8 111.7 33.8 110.6"/>
  <path class="st1" d="M52.6,119c.6-.2,1.2,0,1.8.2.6.3.9.8,1,1.4.1.6,0,1.3-.6,2.1-.5.8-1,1.3-1.7,1.5-.6.2-1.2.1-1.8-.2-.6-.3-.9-.8-1-1.4-.1-.6,0-1.3.5-2.1.5-.8,1-1.3,1.6-1.4M48.9,122.8c.2,1,.9,1.8,1.9,2.4,1,.6,2,.8,3,.5,1-.3,1.8-.9,2.5-2.1.7-1.1.9-2.2.7-3.2-.2-1-.9-1.8-1.9-2.4-.6-.3-1.1-.5-1.7-.6-.4,0-.8,0-1.3,0-.4.1-.9.3-1.2.6-.5.3-1,.9-1.4,1.6-.7,1.1-.9,2.1-.7,3.1"/>
  <path class="st1" d="M46.4,113.9c.5.4.8.7,1,.9.2.2.3.5.3.8,0,.3,0,.6-.2.9-.1.3-.4.7-.8,1.2-.4.5-.8.8-1.1,1-.3.2-.6.3-.8.3-.2,0-.5,0-.7-.2-.2,0-.5-.3-.8-.6l-.9-.8,3.5-4,.6.5ZM40.2,117.4l2.4,2c.5.4.9.6,1.2.8.5.2.9.3,1.3.2.5,0,1.1-.2,1.6-.5.4-.3.9-.6,1.3-1.1.5-.6.8-1.1,1-1.6.2-.5.3-1,.3-1.5,0-.5-.2-.9-.4-1.4-.2-.3-.6-.7-1.1-1.1l-2.3-1.9-5.3,6.1Z"/>
  <path class="st1" d="M32.7,102.7l3.2-.5-2.1,2.4-1.1-1.9ZM38,102l-.9-1.5-8.7,1.2.9,1.5,2-.3,1.6,2.8-1.3,1.5.9,1.5,5.5-6.7Z"/>
  <polygon class="st1" points="25.3 93.9 33 91.1 33.5 92.7 30.5 93.7 31.6 96.7 34.6 95.6 35.2 97.1 27.5 99.8 27 98.3 30.3 97.1 29.2 94.2 25.9 95.4 25.3 93.9"/>
  <path class="st1" d="M25.9,84.4l.4,1.5c-.5.2-.9.4-1.1.8-.2.3-.2.7-.2,1.2,0,.5.3.9.5,1.1.3.2.6.3.8.2.2,0,.3-.1.5-.2.1-.1.2-.4.2-.6,0-.2,0-.6.1-1.3,0-.9.2-1.5.5-1.9.4-.6.8-.9,1.5-1,.4,0,.8,0,1.2.1.4.2.7.4,1,.8.3.4.5.9.6,1.5.2,1,0,1.8-.2,2.3-.3.6-.9.9-1.6,1.1l-.4-1.6c.4-.1.7-.3.8-.6.1-.2.2-.6,0-1,0-.5-.2-.8-.5-1-.2-.1-.3-.2-.5-.2-.2,0-.3.1-.4.3-.1.2-.2.8-.3,1.6,0,.8-.1,1.4-.3,1.8-.1.4-.3.7-.7,1-.3.3-.7.5-1.2.5-.5,0-.9,0-1.4-.1-.4-.2-.8-.5-1.1-.9-.3-.4-.5-1-.6-1.6-.2-1,0-1.8.3-2.4.4-.6,1-1,1.9-1.3"/>
  <path class="st1" d="M79.4,124.1h1.6c0-.1.4,4.2.4,4.2,0,.7.1,1.1.2,1.3,0,.3.3.6.6.7.3.2.6.2,1.1.2.5,0,.8-.2,1-.4.2-.2.3-.4.4-.7,0-.3,0-.7,0-1.4l-.4-4.4h1.6c0-.1.4,4,.4,4,0,1,.1,1.6,0,2,0,.4-.2.7-.4,1-.2.3-.5.5-.9.7-.4.2-.9.3-1.5.4-.8,0-1.4,0-1.8-.1-.4-.1-.8-.3-1-.6-.3-.3-.4-.5-.5-.8-.1-.4-.3-1.1-.3-2l-.4-4.2Z"/>
  <polygon class="st1" points="89.8 130.9 87.5 123.3 89.1 122.8 93.8 127.1 92.3 121.9 93.8 121.5 96 129.2 94.4 129.7 89.8 125.5 91.2 130.5 89.8 130.9"/>
  <polygon class="st1" points="98.5 128.2 95.4 120.8 96.9 120.2 100 127.6 98.5 128.2"/>
  <polygon class="st1" points="104.2 125.6 97.6 120.1 99.2 119.2 104 123.4 102.7 117.3 104.3 116.5 105.7 124.8 104.2 125.6"/>
  <polygon class="st1" points="110 122.2 104.9 115.9 109.6 112.2 110.5 113.3 107 116 108.2 117.4 111.4 114.9 112.2 115.9 109 118.4 110.4 120.1 114 117.3 114.8 118.4 110 122.2"/>
  <path class="st1" d="M112.9,110.9l.9-.9c.5-.5.7-.8.8-.8.2-.2.4-.2.7-.2.2,0,.4.1.6.3.2.2.3.3.3.5,0,.2,0,.4,0,.6,0,.2-.4.6-.9,1.1l-.8.9-1.5-1.4ZM117.9,115.4l-2.5-2.3.2-.2c.3-.3.5-.4.6-.5.2,0,.4-.1.6-.1.2,0,.7,0,1.5.2l2.1.3,1.3-1.4-1.8-.3c-.7-.1-1.3-.2-1.6-.2s-.7,0-1.1.2c.4-.6.6-1.1.5-1.7,0-.5-.3-1-.8-1.4-.4-.3-.8-.5-1.2-.6-.4,0-.8,0-1.2.2-.4.2-.8.6-1.4,1.2l-2.3,2.5,6,5.4,1.1-1.2Z"/>
  <path class="st1" d="M120.5,108.4l.8-1.4c.5.2.9.3,1.3.2.4,0,.7-.4,1-.8.3-.4.4-.8.4-1.1,0-.3-.2-.6-.4-.8-.2-.1-.3-.1-.5-.1-.2,0-.4.1-.6.3-.2.1-.5.4-1,.9-.7.6-1.2,1-1.7,1.1-.7.2-1.2,0-1.8-.3-.3-.2-.6-.5-.8-.9-.2-.4-.2-.8-.1-1.3,0-.5.3-.9.7-1.5.6-.8,1.2-1.3,1.8-1.5.7-.2,1.3,0,1.9.3l-.9,1.4c-.4-.2-.7-.2-1-.1-.3,0-.6.3-.8.7-.3.4-.4.7-.4,1.1,0,.2.1.4.3.5.2,0,.3.1.5,0,.3,0,.7-.4,1.3-.9.6-.5,1.1-.9,1.5-1.1.4-.2.8-.3,1.2-.3.4,0,.8.2,1.3.4.4.3.7.6.9,1,.2.4.2.9.1,1.4,0,.5-.3,1-.7,1.6-.6.8-1.2,1.4-1.9,1.5-.7.2-1.5,0-2.3-.3"/>
  <polygon class="st1" points="127.4 102.3 120.1 98.9 120.8 97.4 128.1 100.9 127.4 102.3"/>
  <polygon class="st1" points="129.8 96.9 123.4 94.7 122.6 97 121.2 96.5 123.4 90.6 124.7 91 123.9 93.2 130.3 95.4 129.8 96.9"/>
  <polygon class="st1" points="132.1 88.9 128.7 88.3 123.5 90.3 123.9 88.5 127.4 87.2 124.6 84.8 124.9 83 129 86.7 132.4 87.3 132.1 88.9"/>
  <path class="st1" d="M77.6,34.1c-23.8,0-43.2,19.1-43.2,42.6s19.3,42.6,43.2,42.6,43.2-19.1,43.2-42.6-19.3-42.6-43.2-42.6M77.6,35.8c22.9,0,41.4,18.3,41.4,40.9s-1.6,12.8-4.4,18.4H40.6c-2.8-5.5-4.4-11.7-4.4-18.4,0-22.6,18.6-40.9,41.4-40.9M77.6,117.5c-15.4,0-28.8-8.2-35.9-20.5h71.8c-7.2,12.2-20.6,20.5-35.9,20.5"/>
  <path class="st1" d="M113.7,85.5c-5.8,4.5-10.5-.7-10.5-.7-7.7,7.2-13.9.4-13.9.4-4.8,3.5-7,2.7-7,2.7l-1.6-11.7h9.5c0,0,1.7,3.7,1.7,3.7h5.5l-1.7-3.7h6.5l1.6,3.8,5.6-.3-1.5-3.5h4.8v-5.3c0,0-7.5.2-7.5.2l-9.5-18.9-7.4,7.8-10.3-20.8-10.5,20.8-7.4-7.8-7.5,15.1-9.6-.3v5.5c0,0,6.9-.3,6.9-.3l-3.1,6.6h5.3l3.1-6.6,6.5-.2-3,6.7h5.4l3.1-6.7h8.2c0,0-2.8,3.9-2.8,3.9h2.3c0,0-1.4,11.8-1.4,11.8-2.7.6-6.8-2.7-6.8-2.7-7.7,6.9-14.3-.3-14.3-.3-4.8,5.3-10.5.8-10.5.8l-1.3,3.2c6.3,4,11.9.3,11.9.3,8,5.1,14.3.3,14.3.3,7.9,5,11.2.2,11.2.2,5.2,4.6,11.6-.3,11.6-.3,6.4,5,13.9-.2,13.9-.2,6.4,3.8,12.1-.3,12.1-.3l-1.4-3.4ZM94.3,60.2l5.4,11.2-6.3.4-3.3-7.3,4.2-4.3ZM63.7,67.5l-6.2-.3,3.5-6.9,4,4.1-1.3,3.1ZM79.7,68l-.9-6.3h-2.3c0,0-.9,6.3-.9,6.3l-6.6-.4,8.8-18.1,10.2,22.2-7.8.2,3-3.9h-3.5Z"/>
  <path class="st1" d="M29.4,56.7s.3.2.5,0c0,0,.1-1.1-.3-1.6,0,0-1.4-1.9-1.6-2.9,0,0-.3-.5-2.1-.5,0,0-.2.4,0,.6.2.1.8,0,1.5,1.1l1.7,2.3s.6.6.5,1.1"/>
  <path class="st1" d="M35,53.5l-2-.2s-.7.2-.1.6c0,0,1,2.1.7,3.2,0,0,.3.6.6-.2,0,0,.6-2.2,1.1-2.6,0,0,.4-.7-.2-.9"/>
  <path class="st1" d="M31.4,56.4s-.2-.6-.5,0c0,0,.2,2-.3,2.6,0,0,0,1.9-.2,2.4,0,0-.3,1.2-.2,1.5h-.2s-1.1-2.8-2.4-2.3c0,0,0,.3.2.5,0,0,1.5,2.7,1.3,3.5,0,0,1,.2,1.9.2,0,0,1-2.5,1.2-3.4,0,0,0-1.7,0-2.2,0,0-.2-2-.5-2.9"/>
  <path class="st1" d="M134,58.8l-.4-.2-1-.8s-.8.2-.6-1c0,0,0-.4-.7-.3l-1.9-1.4s-.6-.5.5-.8c0,0,.8-.3-.4-.4,0,0-1.3.2-1.5.5,0,0-.1,1.1.8,1,0,0,1.8,1.2,2.1,1.4,0,0-.3,1-.1,1.3,0,0,0,.4-1-.2,0,0-4.3-1.8-4.5-2.5,0,0-.9-.2-1.3.2,0,0,0,.9.2,1l1.3.9s-.5.3-1.7,0c0,0-1.1.2-.4,1.1,0,0,.6,1.1-.2,1.6,0,0,0-2.1-3.2-4.8,0,0-1,0-1.5,4.6,0,0-.2,1.8,1.9,1.7l1.6-.3s.2-.3.4.2v1.1c0,0-.6.4,0,.6,0,0,.6,1,1-.4v-2c0,0,1.2.2,1-2.1l2.8.2s.8-.6-.6-1.6c0,0,1.5.8,2,1.3,0,0,0,.3.8.2,0,0,.2.4,1.5.6,0,0,.1.7,3.1.9,0,0,.4-.9,0-1.4M120.6,60.6c-1.8,0-1.2-2.7-1.2-2.7,0-1.4,1.4.5,1.4.5l1,1.4c.8,1.2-1.2.9-1.2.9M132,58.2s.2,0,.4.1l.5.5s-1.4,0-.9-.6"/>
  <path class="st1" d="M57.3,33.7s-.6-.6,0-2.8l-.4-.6v-.4s-.5-.1-.5-.1c0,0-.3-.6-1-.3,0,0-.4.1.1-.7l1.1-1.8v-2.2c-.1,0,0-.4-.8-.3,0,0,.2.4-.2.9-.3.4-.7,1.3-.8,1.8,0,0-.2-2.1-.4-2.5l-.5-.7s-.7-.4-.2.8v4.5l-.8,1.2s-1.2.3-.3.9l1.3.3v2.9c.1,0,0,.8,0,.8l1.1.2.9-1.4s.2,0,.2.2l.2,1.2s-.4,1.3-.7,1.4c0,0-.1,0-.5.4,0,0-1,1.3.5,1.3,0,0,.6.2.7-.7v-1.2c0,0,2.4.4,2.4.4,0,0,.1-.6-.4-1.4l-1.2-2.3ZM55.5,33.1l-.5.8-.4-2.4c-.1-.8.4-1.4.4-1.4.3.6.4,1.9.4,1.9,0,.6,0,1.1,0,1.1"/>
  <path class="st1" d="M59.5,33.6l-1.3.2s-.8.5,0,.5c0,0,.9.3,1.3.7,0,0,.6.8.9-.2v-.7s0-.6-1-.6"/>
  <polygon class="st1" points="65 103.7 64 104.5 63.4 103.6 65.4 102 66.1 102.4 66.1 110.4 65 110.4 65 103.7"/>
  <polygon class="st1" points="89.5 103.7 88.6 104.5 87.9 103.6 90 102 90.7 102.4 90.7 110.4 89.5 110.4 89.5 103.7"/>
  <path class="st1" d="M74.4,104.4c0,.3,0,.6,0,.9,0,.2-.2.4-.3.6-.1.2-.4.3-.9.3-.2,0-.4,0-.6,0-.2,0-.4-.1-.5-.2-.1-.1-.2-.3-.3-.5,0-.2,0-.4,0-.7,0-.3,0-.6.1-.8,0-.2.2-.3.3-.4.1-.1.3-.2.4-.3.2,0,.4,0,.6,0,.3,0,.5,0,.7.2.2.1.3.3.4.5,0,.1,0,.4.1.7M74.5,107.5c0,.2,0,.4,0,.6,0,.2-.1.4-.2.5,0,.2-.2.3-.4.4-.2.1-.3.2-.6.2-.2,0-.4,0-.6,0-.3,0-.5,0-.7-.2-.2-.1-.3-.2-.3-.4,0-.1,0-.3,0-.4h-1.2s.1.5.1.5c0,.2.1.4.3.6.1.2.3.4.5.6.2.1.4.2.7.3.3,0,.6.1,1,.1.3,0,.6,0,.9-.1.3,0,.5-.2.7-.3.2-.1.3-.3.5-.5.1-.2.2-.4.3-.6,0-.2.1-.5.2-.7,0-.3,0-.6,0-1v-2.4c0-.4,0-.8-.1-1.1,0-.3-.2-.6-.4-.8-.2-.2-.5-.5-.8-.7-.3-.2-.8-.3-1.2-.3-.3,0-.6,0-.9.2-.3,0-.6.2-.8.4-.2.2-.4.4-.5.6-.1.2-.2.5-.2.7,0,.2,0,.5,0,.8,0,.5,0,.9.2,1.2.1.3.2.5.4.7.2.2.4.3.8.5.4.2.8.2,1.3.2.2,0,.4,0,.6,0,.2,0,.3,0,.4-.1.1,0,.2,0,.3-.2v.6Z"/>
  <path class="st1" d="M83.7,106.6c0,.3,0,.6,0,.9,0,.4-.2.7-.3.9-.2.3-.3.5-.6.6-.2.1-.5.2-.7.2-.3,0-.6,0-.8-.2-.2-.1-.4-.3-.5-.6-.1-.2-.2-.6-.3-.9,0-.4,0-.8-.1-1.3,0-.3,0-.6,0-.8,0-.2,0-.5.1-.8,0-.3.2-.6.3-.9.1-.2.3-.4.5-.6.2-.1.5-.2.8-.2.3,0,.5,0,.7.2.2.1.4.3.5.5.1.2.3.5.3.8,0,.3.1.8.1,1.3,0,.2,0,.5,0,.7M84.8,105.4c0-.4,0-.7-.2-1.1,0-.3-.2-.7-.4-1-.2-.3-.4-.6-.6-.8-.3-.2-.5-.4-.8-.5-.3-.1-.6-.2-.8-.2-.4,0-.7,0-1,.2-.3.2-.6.4-.8.6-.2.2-.4.5-.5.8-.1.3-.2.7-.3,1,0,.4-.1.7-.1,1,0,.2,0,.6,0,1.1,0,.5,0,.9.1,1.2,0,.3.2.7.3,1,.1.3.3.6.5.9.2.2.5.4.8.6.3.1.7.2,1,.2s.7,0,1-.1c.3-.1.5-.2.7-.4.2-.2.4-.4.5-.7.2-.3.3-.6.4-.9,0-.3.1-.6.2-1,0-.4,0-.6,0-.8,0-.4,0-.8,0-1.2"/>
  <path class="st1" d="M102.3,29.2h1.2c0,0,1.5-.9,1.5-.9,0,0,.3-.1,0-.6,0,0-.2.3-.7.2-.4,0-1.2,0-1.6.1h0s-1,0-1,0c.3-.2-.3-1.7-.3-1.7-.3-.6-.6-.3-.6-.3-.4.3-.5,1.3-.5,1.3l-.4.5h-1.5c0,0-1.6-.2-1.6-.2,0,0-1-1.1-1.1.2l.3,1c0,.2,0,.3.1.4h0s0,0,0,0c.3.4.9.4,1.1.4-.5,0-2.1,1-2.1,1-2.5,1.7-5.8,1.8-5.8,1.8-1.1.3.2.6.2.6,1.1.2,5.1-.7,5.1-.7,5.8-1.6,6.6-3.2,6.6-3.2.3,0,.6,0,1,0"/>
  <path class="st1" d="M99.7,33.9s-.5-1-.8.1c0,0-.8,2.5-1.8,2.6,0,0-.8.4,0,.6,0,0,1.8-.8,2.9-.8,0,0,1-.8-.2-2.4"/>
</svg>